<?xml version="1.0" encoding="utf-8"?>
<!-- Generator: Adobe Illustrator 25.0.0, SVG Export Plug-In . SVG Version: 6.00 Build 0)  -->
<svg version="1.1" id="Layer_1" xmlns="http://www.w3.org/2000/svg" xmlns:xlink="http://www.w3.org/1999/xlink" x="0px" y="0px"
	 viewBox="0 0 658 297" style="enable-background:new 0 0 658 297;" xml:space="preserve">
<style type="text/css">
	.st0{fill:#1473E6;}
</style>
<g>
	<polygon class="st0" points="14.17,280.9 3.29,269.13 73.38,204.27 73.38,33.23 31.5,33.23 31.5,17.21 89.41,17.21 89.41,211.28 	
		"/>
	<polygon class="st0" points="165.28,17.21 165.28,131.86 113.56,99.7 113.56,17.21 	"/>
	<polygon class="st0" points="113.56,110.97 165.28,143.08 165.28,278.46 113.56,278.46 	"/>
	<polygon class="st0" points="242.75,17.21 242.75,180 191.08,147.89 191.08,17.21 	"/>
	<polygon class="st0" points="191.08,159.16 242.75,191.27 242.75,278.46 191.08,278.46 	"/>
	<g>
		<path class="st0" d="M301.26,102.43c-1.21,0-2.82-0.13-4.85-0.37v-4.64c0.89,0.07,1.66,0.14,2.32,0.19
			c0.66,0.05,1.29,0.08,1.89,0.08c2.73,0,4.9-0.67,6.52-2.02c1.62-1.35,2.43-3.68,2.43-6.98V62.48h5.22v26.21
			c0,4.19-1.14,7.53-3.43,10.01C309.07,101.19,305.7,102.43,301.26,102.43z"/>
		<path class="st0" d="M343.66,102.43c-3.09,0-5.75-0.59-7.99-1.78c-2.24-1.19-3.97-2.87-5.19-5.06c-1.23-2.18-1.84-4.76-1.84-7.75
			V62.48h5.22v25.36c0,2.73,0.81,5.02,2.42,6.87c1.62,1.85,4.07,2.77,7.38,2.77c3.34,0,5.82-0.92,7.43-2.77
			c1.61-1.85,2.42-4.14,2.42-6.87V62.48h5.22v25.36c0,2.98-0.62,5.57-1.84,7.75c-1.22,2.19-2.95,3.87-5.19,5.06
			C349.47,101.84,346.79,102.43,343.66,102.43z"/>
		<path class="st0" d="M372.59,101.9V62.48h4.69l20.56,29.99V62.48h5.22v39.42h-4.69L377.8,71.97v29.93H372.59z"/>
		<path class="st0" d="M416.05,101.9v-4l21.78-30.84h-21.78v-4.58h28.23v4l-21.84,30.84h21.84v4.58H416.05z"/>
		<path class="st0" d="M455.79,74.89l3.83-6.18c-0.85-0.07-1.57-0.43-2.15-1.06c-0.59-0.64-0.88-1.42-0.88-2.35
			c0-1.03,0.35-1.84,1.07-2.45c0.71-0.61,1.51-0.91,2.39-0.91c0.99,0,1.84,0.3,2.53,0.91s1.04,1.46,1.04,2.56
			c0,0.99-0.38,2.13-1.15,3.41c-0.76,1.28-1.98,3.13-3.65,5.54l-0.37,0.53H455.79z"/>
		<path class="st0" d="M487.48,102.43c-2.27,0-4.22-0.29-5.83-0.88c-1.61-0.59-2.95-1.35-4.02-2.29c-1.07-0.94-1.92-1.93-2.56-2.96
			c-0.64-1.03-1.12-2.01-1.44-2.96c-0.32-0.94-0.57-1.99-0.75-3.17h5.33c0.21,1,0.49,1.86,0.82,2.61c0.34,0.75,0.85,1.5,1.52,2.26
			c0.67,0.77,1.58,1.39,2.72,1.89c1.14,0.5,2.57,0.74,4.31,0.74c2.62,0,4.7-0.63,6.23-1.89c1.53-1.26,2.29-2.9,2.29-4.93
			c0-1.74-0.58-3.09-1.73-4.05c-1.15-0.96-2.8-1.71-4.93-2.24l-5.22-1.28c-1.85-0.46-3.56-1.11-5.14-1.95
			c-1.58-0.83-2.84-1.93-3.78-3.3c-0.94-1.36-1.41-3.08-1.41-5.14c0-2.31,0.57-4.28,1.71-5.91c1.13-1.63,2.68-2.89,4.63-3.76
			c1.95-0.87,4.17-1.3,6.66-1.3c2.42,0,4.42,0.38,6.02,1.12c1.6,0.75,2.87,1.66,3.83,2.74c0.95,1.09,1.67,2.17,2.13,3.25
			c0.46,1.09,0.83,2.37,1.12,3.86h-5.11c-0.28-1.28-0.69-2.33-1.22-3.17c-0.54-0.83-1.35-1.57-2.45-2.21
			c-1.1-0.64-2.59-0.96-4.48-0.96c-2.56,0-4.48,0.61-5.78,1.82c-1.3,1.21-1.95,2.59-1.95,4.15c0,1.42,0.52,2.57,1.54,3.43
			c1.03,0.87,2.45,1.54,4.26,2l5.65,1.39c2.02,0.5,3.85,1.22,5.49,2.15c1.63,0.94,2.93,2.15,3.89,3.62
			c0.96,1.48,1.43,3.28,1.43,5.41c0,2.13-0.52,4.11-1.57,5.92c-1.05,1.81-2.59,3.26-4.63,4.34
			C493.03,101.89,490.5,102.43,487.48,102.43z"/>
		<path class="st0" d="M315.86,171.32c-3.09,0-5.8-0.57-8.15-1.73c-2.34-1.15-4.28-2.7-5.83-4.63c-1.55-1.94-2.71-4.1-3.49-6.5
			c-0.78-2.4-1.17-4.86-1.17-7.38c0-2.53,0.39-4.99,1.17-7.4c0.78-2.42,1.94-4.59,3.49-6.53c1.54-1.94,3.49-3.47,5.83-4.61
			c2.35-1.14,5.06-1.71,8.15-1.71c2.56,0,4.75,0.33,6.58,0.99c1.83,0.66,3.35,1.5,4.58,2.53c1.23,1.03,2.22,2.13,2.98,3.3
			c0.76,1.17,1.33,2.27,1.71,3.3c0.37,1.03,0.68,2.2,0.93,3.52h-5.22c-0.29-1.17-0.64-2.19-1.06-3.06
			c-0.43-0.87-1.07-1.75-1.92-2.64c-0.85-0.89-1.97-1.62-3.35-2.21c-1.39-0.59-3.11-0.88-5.17-0.88c-2.24,0-4.19,0.44-5.86,1.3
			c-1.67,0.87-3.06,2.05-4.18,3.52c-1.12,1.48-1.95,3.13-2.5,4.96c-0.55,1.83-0.82,3.7-0.82,5.62c0,1.91,0.28,3.79,0.82,5.62
			c0.55,1.83,1.39,3.48,2.5,4.95c1.12,1.48,2.51,2.65,4.18,3.52c1.66,0.87,3.62,1.3,5.86,1.3c2.06,0,3.78-0.3,5.17-0.9
			c1.38-0.61,2.5-1.34,3.35-2.21c0.85-0.87,1.49-1.74,1.92-2.61c0.42-0.87,0.78-1.91,1.06-3.12h5.22c-0.25,1.31-0.56,2.5-0.93,3.54
			c-0.38,1.05-0.94,2.15-1.71,3.3c-0.77,1.15-1.76,2.26-2.98,3.3c-1.23,1.05-2.75,1.9-4.58,2.56
			C320.61,170.99,318.41,171.32,315.86,171.32z"/>
		<path class="st0" d="M345.15,170.79v-39.42h13.96c2.81,0,5.13,0.55,6.98,1.65c1.84,1.1,3.23,2.52,4.15,4.26
			c0.92,1.74,1.38,3.57,1.38,5.48c0,1.6-0.32,3.14-0.95,4.63c-0.64,1.49-1.59,2.8-2.85,3.92c-1.26,1.12-2.85,1.93-4.76,2.42
			l9.96,17.05h-5.91l-9.54-16.57h-7.19v16.57H345.15z M359.06,135.95h-8.68v13.8h8.68c1.63,0,2.98-0.33,4.05-1.01
			c1.06-0.67,1.86-1.53,2.39-2.58c0.53-1.04,0.8-2.14,0.8-3.28c0-1.17-0.27-2.28-0.8-3.33c-0.53-1.04-1.33-1.9-2.39-2.58
			C362.04,136.29,360.69,135.95,359.06,135.95z"/>
		<path class="st0" d="M386.06,170.79v-39.42h25.03v4.58h-19.82v12.46h17.37V153h-17.37v13.21h20.08v4.58H386.06z"/>
		<path class="st0" d="M422.55,170.79l13.9-39.42H443l13.96,39.42h-5.54l-3.3-9.43h-16.72l-3.3,9.43H422.55z M432.99,156.67h13.53
			l-6.76-19.34L432.99,156.67z"/>
		<path class="st0" d="M474.59,170.79v-34.84h-12.3v-4.58h29.83v4.58h-12.31v34.84H474.59z"/>
		<path class="st0" d="M504.1,170.79v-39.42h5.22v39.42H504.1z"/>
		<path class="st0" d="M534.41,170.79l-13.9-39.42h5.54l11.67,33.45l11.66-33.45h5.54l-13.96,39.42H534.41z"/>
		<path class="st0" d="M566.1,170.79v-39.42h25.03v4.58h-19.82v12.46h17.37V153h-17.37v13.21h20.08v4.58H566.1z"/>
		<path class="st0" d="M298.55,239.67v-39.42h14.07c3.02,0,5.53,0.62,7.53,1.87c2.01,1.24,3.52,2.85,4.53,4.82
			c1.01,1.97,1.52,4.02,1.52,6.15c0,2.17-0.51,4.23-1.52,6.2c-1.01,1.97-2.52,3.59-4.53,4.85c-2,1.26-4.52,1.89-7.53,1.89h-8.84
			v13.64H298.55z M312.61,204.84h-8.84v16.62h8.84c1.88,0,3.44-0.41,4.69-1.23c1.24-0.82,2.18-1.86,2.8-3.12
			c0.62-1.26,0.93-2.58,0.93-3.97c0-1.39-0.31-2.72-0.93-4c-0.62-1.28-1.55-2.32-2.8-3.11
			C316.06,205.24,314.49,204.84,312.61,204.84z"/>
		<path class="st0" d="M355.92,240.21c-3.13,0-5.88-0.57-8.26-1.73c-2.38-1.15-4.37-2.7-5.96-4.63c-1.6-1.94-2.81-4.11-3.62-6.52
			c-0.82-2.42-1.23-4.88-1.23-7.41c0-2.52,0.41-4.98,1.23-7.38c0.81-2.39,2.02-4.55,3.62-6.47c1.6-1.91,3.58-3.45,5.96-4.61
			c2.38-1.15,5.13-1.73,8.26-1.73c3.12,0,5.87,0.58,8.25,1.73c2.38,1.15,4.37,2.69,5.96,4.61c1.6,1.92,2.81,4.07,3.63,6.47
			c0.81,2.4,1.22,4.86,1.22,7.38c0,2.53-0.41,4.99-1.22,7.41c-0.82,2.41-2.02,4.59-3.63,6.52c-1.6,1.94-3.58,3.48-5.96,4.63
			C361.79,239.63,359.04,240.21,355.92,240.21z M355.92,235.36c2.23,0,4.21-0.43,5.91-1.28c1.7-0.85,3.13-2,4.29-3.46
			c1.15-1.46,2.03-3.1,2.63-4.95c0.61-1.85,0.91-3.76,0.91-5.75c0-1.95-0.3-3.84-0.91-5.67c-0.61-1.83-1.48-3.47-2.63-4.93
			c-1.16-1.46-2.59-2.61-4.29-3.46c-1.71-0.85-3.68-1.28-5.91-1.28c-2.24,0-4.21,0.43-5.92,1.28c-1.7,0.86-3.13,2.01-4.28,3.46
			c-1.16,1.46-2.03,3.1-2.64,4.93c-0.61,1.83-0.9,3.72-0.9,5.67c0,1.99,0.3,3.91,0.9,5.75c0.61,1.85,1.48,3.5,2.64,4.95
			c1.15,1.46,2.58,2.61,4.28,3.46C351.71,234.93,353.68,235.36,355.92,235.36z"/>
		<path class="st0" d="M387.5,239.67v-39.42h13.96c2.81,0,5.13,0.55,6.98,1.65c1.84,1.1,3.23,2.52,4.15,4.26
			c0.92,1.74,1.38,3.57,1.38,5.48c0,1.6-0.32,3.14-0.95,4.63c-0.64,1.49-1.59,2.8-2.85,3.92c-1.26,1.12-2.85,1.93-4.76,2.42
			l9.96,17.05h-5.91l-9.54-16.57h-7.19v16.57H387.5z M401.4,204.84h-8.68v13.8h8.68c1.63,0,2.98-0.33,4.05-1.01
			c1.06-0.67,1.86-1.53,2.39-2.58c0.53-1.04,0.8-2.14,0.8-3.28c0-1.17-0.27-2.28-0.8-3.33c-0.53-1.04-1.33-1.9-2.39-2.58
			C404.39,205.18,403.04,204.84,401.4,204.84z"/>
		<path class="st0" d="M437.25,239.67v-34.84h-12.3v-4.58h29.83v4.58h-12.3v34.84H437.25z"/>
		<path class="st0" d="M466.76,239.67v-39.42h25.99v4.58h-20.77v13h18.32v4.58h-18.32v17.26H466.76z"/>
		<path class="st0" d="M522.48,240.21c-3.13,0-5.87-0.57-8.25-1.73c-2.38-1.15-4.37-2.7-5.97-4.63c-1.6-1.94-2.8-4.11-3.62-6.52
			c-0.82-2.42-1.23-4.88-1.23-7.41c0-2.52,0.41-4.98,1.23-7.38c0.82-2.39,2.02-4.55,3.62-6.47c1.6-1.91,3.59-3.45,5.97-4.61
			c2.38-1.15,5.13-1.73,8.25-1.73s5.87,0.58,8.25,1.73c2.38,1.15,4.37,2.69,5.97,4.61c1.6,1.92,2.8,4.07,3.62,6.47
			c0.82,2.4,1.23,4.86,1.23,7.38c0,2.53-0.41,4.99-1.23,7.41c-0.82,2.41-2.02,4.59-3.62,6.52s-3.59,3.48-5.97,4.63
			C528.35,239.63,525.6,240.21,522.48,240.21z M522.48,235.36c2.24,0,4.21-0.43,5.91-1.28c1.71-0.85,3.14-2,4.29-3.46
			c1.15-1.46,2.03-3.1,2.63-4.95c0.61-1.85,0.91-3.76,0.91-5.75c0-1.95-0.3-3.84-0.91-5.67c-0.6-1.83-1.48-3.47-2.63-4.93
			s-2.58-2.61-4.29-3.46c-1.7-0.85-3.67-1.28-5.91-1.28c-2.24,0-4.21,0.43-5.91,1.28c-1.71,0.86-3.14,2.01-4.29,3.46
			c-1.15,1.46-2.03,3.1-2.63,4.93c-0.61,1.83-0.91,3.72-0.91,5.67c0,1.99,0.3,3.91,0.91,5.75c0.6,1.85,1.48,3.5,2.63,4.95
			c1.15,1.46,2.58,2.61,4.29,3.46C518.27,234.93,520.24,235.36,522.48,235.36z"/>
		<path class="st0" d="M554.06,239.67v-39.42h5.22v34.84h20.3v4.58H554.06z"/>
		<path class="st0" d="M592.63,239.67v-39.42h5.22v39.42H592.63z"/>
		<path class="st0" d="M629.44,240.21c-3.13,0-5.88-0.57-8.26-1.73c-2.38-1.15-4.37-2.7-5.96-4.63c-1.6-1.94-2.81-4.11-3.62-6.52
			c-0.82-2.42-1.23-4.88-1.23-7.41c0-2.52,0.41-4.98,1.23-7.38c0.81-2.39,2.02-4.55,3.62-6.47c1.6-1.91,3.58-3.45,5.96-4.61
			c2.38-1.15,5.13-1.73,8.26-1.73c3.12,0,5.87,0.58,8.25,1.73c2.38,1.15,4.37,2.69,5.96,4.61c1.6,1.92,2.81,4.07,3.63,6.47
			c0.81,2.4,1.22,4.86,1.22,7.38c0,2.53-0.41,4.99-1.22,7.41c-0.82,2.41-2.02,4.59-3.63,6.52c-1.6,1.94-3.58,3.48-5.96,4.63
			C635.31,239.63,632.56,240.21,629.44,240.21z M629.44,235.36c2.23,0,4.21-0.43,5.91-1.28c1.7-0.85,3.13-2,4.29-3.46
			c1.15-1.46,2.03-3.1,2.63-4.95c0.61-1.85,0.91-3.76,0.91-5.75c0-1.95-0.3-3.84-0.91-5.67c-0.61-1.83-1.48-3.47-2.63-4.93
			c-1.16-1.46-2.59-2.61-4.29-3.46c-1.71-0.85-3.68-1.28-5.91-1.28c-2.24,0-4.21,0.43-5.92,1.28c-1.7,0.86-3.13,2.01-4.28,3.46
			c-1.16,1.46-2.03,3.1-2.64,4.93c-0.61,1.83-0.9,3.72-0.9,5.67c0,1.99,0.3,3.91,0.9,5.75c0.61,1.85,1.48,3.5,2.64,4.95
			c1.15,1.46,2.58,2.61,4.28,3.46C625.22,234.93,627.2,235.36,629.44,235.36z"/>
	</g>
</g>
</svg>
