<?xml version="1.0" encoding="utf-8"?>
<!-- Generator: Adobe Illustrator 25.0.0, SVG Export Plug-In . SVG Version: 6.00 Build 0)  -->
<svg version="1.1" id="Layer_1" xmlns="http://www.w3.org/2000/svg" xmlns:xlink="http://www.w3.org/1999/xlink" x="0px" y="0px"
	 viewBox="0 0 125 16" style="enable-background:new 0 0 125 16;" xml:space="preserve">
<style type="text/css">
	.st0{fill:#1473E6;}
</style>
<g>
	<g>
		<g>
			<g>
				<rect x="93.4" y="9.4" class="st0" width="29.1" height="0.8"/>
				<g>
					<polygon class="st0" points="120,13.2 119.5,12.6 122.3,9.8 119.5,7 120,6.4 123.4,9.8 					"/>
				</g>
			</g>
		</g>
	</g>
	<g>
		<path class="st0" d="M0,14.7L4.3,8L0,1.3h2.1l3.4,5.4L9,1.3h2.1L6.7,8l4.4,6.7H9L5.6,9.3l-3.4,5.4H0z"/>
		<path class="st0" d="M17,14.9c-0.8,0-1.5-0.1-2-0.4c-0.6-0.3-1-0.7-1.4-1.2s-0.6-1-0.8-1.6c-0.2-0.6-0.3-1.2-0.3-1.8
			c0-0.6,0.1-1.2,0.3-1.8c0.2-0.6,0.4-1.1,0.8-1.6s0.8-0.9,1.4-1.2c0.6-0.3,1.2-0.4,2-0.4c0.8,0,1.6,0.2,2.2,0.6
			c0.6,0.4,1.1,0.9,1.5,1.7c0.4,0.7,0.5,1.7,0.5,2.8v0.5h-7c0,0.5,0.2,1,0.4,1.5c0.2,0.5,0.5,0.8,1,1.1c0.4,0.3,0.9,0.4,1.5,0.4
			c0.5,0,0.9-0.1,1.2-0.2c0.3-0.2,0.6-0.4,0.7-0.6c0.2-0.2,0.3-0.5,0.5-0.8h1.6c-0.1,0.4-0.3,0.8-0.4,1.1c-0.2,0.3-0.4,0.6-0.7,0.9
			s-0.7,0.6-1.2,0.8S17.7,14.9,17,14.9z M14.2,9.1h5.3c0-0.6-0.2-1.1-0.4-1.5c-0.2-0.4-0.6-0.7-0.9-0.9c-0.4-0.2-0.8-0.3-1.2-0.3
			c-0.8,0-1.4,0.2-1.9,0.7S14.3,8.3,14.2,9.1z"/>
		<path class="st0" d="M23.5,14.7V5.1h1.7v1.4h0.1c0.1-0.2,0.2-0.4,0.5-0.6c0.2-0.2,0.5-0.5,0.8-0.7C27,5,27.5,4.9,28,4.9
			c0.7,0,1.3,0.2,1.8,0.5s0.9,0.8,1.1,1.4h0c0.3-0.5,0.6-1,1.1-1.4c0.5-0.4,1.1-0.6,1.9-0.6c1,0,1.8,0.4,2.4,1.1
			c0.6,0.7,0.8,1.6,0.8,2.7v6h-1.7V8.8c0-0.7-0.2-1.3-0.5-1.7c-0.3-0.4-0.8-0.7-1.5-0.7c-0.6,0-1,0.2-1.3,0.5
			c-0.3,0.3-0.6,0.7-0.7,1.1c-0.1,0.4-0.2,0.9-0.2,1.3v5.4h-1.7V8.8c0-0.7-0.2-1.3-0.5-1.7c-0.3-0.4-0.8-0.7-1.5-0.7
			c-0.6,0-1,0.2-1.3,0.5c-0.3,0.3-0.6,0.7-0.7,1.1c-0.1,0.5-0.2,0.9-0.2,1.3v5.4H23.5z"/>
		<path class="st0" d="M48.1,14.9c-1,0-1.7-0.3-2.2-0.8c-0.5-0.5-0.8-1.2-0.8-2.1V6.5h-1.7V5.1h1.7V2.7h1.7v2.4h2.3v1.4h-2.3V12
			c0,0.5,0.1,0.8,0.4,1.1c0.3,0.2,0.7,0.3,1.2,0.3c0.3,0,0.6,0,1.1-0.1v1.5C48.9,14.9,48.5,14.9,48.1,14.9z"/>
		<path class="st0" d="M52,14.7V0.9h1.7v5.6h0.1c0.1-0.1,0.2-0.3,0.4-0.6s0.5-0.5,0.9-0.7s0.8-0.3,1.4-0.3c0.7,0,1.3,0.2,1.8,0.5
			s0.9,0.8,1.1,1.3c0.3,0.5,0.4,1.2,0.4,1.8v6.2h-1.7V8.6c0-0.6-0.2-1.2-0.5-1.6S56.7,6.4,56,6.4c-0.5,0-1,0.1-1.3,0.4
			c-0.3,0.3-0.6,0.6-0.8,1.1c-0.2,0.4-0.2,0.9-0.2,1.4v5.4H52z"/>
		<path class="st0" d="M66.9,14.9c-0.8,0-1.5-0.1-2-0.4c-0.6-0.3-1-0.7-1.4-1.2s-0.6-1-0.8-1.6s-0.3-1.2-0.3-1.8
			c0-0.6,0.1-1.2,0.3-1.8C62.7,7.5,63,7,63.4,6.5s0.8-0.9,1.4-1.2s1.2-0.4,2-0.4c0.8,0,1.6,0.2,2.2,0.6c0.6,0.4,1.1,0.9,1.5,1.7
			C70.8,7.9,71,8.8,71,9.9v0.5h-7c0,0.5,0.2,1,0.4,1.5c0.2,0.5,0.5,0.8,1,1.1c0.4,0.3,0.9,0.4,1.5,0.4c0.5,0,0.9-0.1,1.2-0.2
			c0.3-0.2,0.6-0.4,0.7-0.6c0.2-0.2,0.3-0.5,0.5-0.8h1.6c-0.1,0.4-0.3,0.8-0.4,1.1c-0.2,0.3-0.4,0.6-0.7,0.9
			c-0.3,0.3-0.7,0.6-1.2,0.8C68.2,14.8,67.6,14.9,66.9,14.9z M63.9,3.7l2.2-3h1.5l2.2,3h-1.6l-1.4-1.9l-1.4,1.9H63.9z M64.1,9.1h5.3
			c0-0.6-0.2-1.1-0.4-1.5c-0.2-0.4-0.6-0.7-0.9-0.9c-0.4-0.2-0.8-0.3-1.2-0.3c-0.8,0-1.4,0.2-1.9,0.7S64.1,8.3,64.1,9.1z"/>
		<path class="st0" d="M73.5,14.7V5.1h1.7v1.4h0.1c0.1-0.2,0.2-0.4,0.5-0.6c0.2-0.2,0.5-0.5,0.8-0.7c0.4-0.2,0.8-0.3,1.4-0.3
			c0.7,0,1.3,0.2,1.8,0.5c0.5,0.3,0.9,0.8,1.1,1.4h0c0.3-0.5,0.6-1,1.1-1.4c0.5-0.4,1.1-0.6,1.9-0.6c1,0,1.8,0.4,2.4,1.1
			c0.6,0.7,0.8,1.6,0.8,2.7v6h-1.7V8.8c0-0.7-0.2-1.3-0.5-1.7c-0.3-0.4-0.8-0.7-1.5-0.7c-0.6,0-1,0.2-1.3,0.5
			c-0.3,0.3-0.6,0.7-0.7,1.1c-0.1,0.4-0.2,0.9-0.2,1.3v5.4h-1.7V8.8c0-0.7-0.2-1.3-0.5-1.7c-0.3-0.4-0.8-0.7-1.5-0.7
			c-0.6,0-1,0.2-1.3,0.5c-0.3,0.3-0.6,0.7-0.7,1.1c-0.1,0.5-0.2,0.9-0.2,1.3v5.4H73.5z"/>
	</g>
</g>
</svg>
